<svg xmlns="http://www.w3.org/2000/svg" viewBox="0 0 192 192" fill="none">
  <defs>
    <linearGradient id="bg" x1="16" y1="8" x2="176" y2="184" gradientUnits="userSpaceOnUse">
      <stop stop-color="#312E81"/>
      <stop offset="0.45" stop-color="#4F46E5"/>
      <stop offset="1" stop-color="#7C3AED"/>
    </linearGradient>
  </defs>
  <rect width="192" height="192" rx="48" fill="url(#bg)"/>
  <path d="M56 138V56h12c3 0 5 2 5 5v77c0 3-2 5-5 5H61c-3 0-5-2-5-5z" fill="white"/>
  <path d="M119 138V56h12c3 0 5 2 5 5v77c0 3-2 5-5 5h-7c-3 0-5-2-5-5z" fill="white"/>
  <path d="M66 62c18 0 30 17 44 35 7 9 14 18 23 24" stroke="white" stroke-width="13" stroke-linecap="round" fill="none"/>
  <circle cx="50" cy="88" r="6" fill="#C4B5FD"/>
  <circle cx="142" cy="88" r="6" fill="#C4B5FD"/>
</svg>
