<svg xmlns="http://www.w3.org/2000/svg" viewBox="0 0 256 256" role="img" aria-hidden="true">
  <defs>
    <linearGradient id="bg" x1="0%" y1="0%" x2="100%" y2="100%">
      <stop offset="0%" stop-color="#312E81"/>
      <stop offset="100%" stop-color="#6D28D9"/>
    </linearGradient>
    <linearGradient id="shine" x1="0%" y1="0%" x2="0%" y2="100%">
      <stop offset="0%" stop-color="#fff" stop-opacity="0.14"/>
      <stop offset="55%" stop-color="#fff" stop-opacity="0"/>
    </linearGradient>
  </defs>
  <rect width="256" height="256" rx="56" fill="url(#bg)"/>
  <rect width="256" height="256" rx="56" fill="url(#shine)"/>
  <circle cx="196" cy="52" r="48" fill="#fff" fill-opacity="0.06"/>
  <g fill="none" stroke="#EEF2FF" stroke-width="9" stroke-linecap="round" stroke-linejoin="round">
    <path d="M70 140c0-28 18-46 42-46h32c24 0 42 18 42 46 0 22-12 40-34 40-12 0-18-8-26-8s-14 8-26 8c-22 0-30-18-30-40z"/>
    <path d="M100 132h24M112 120v24"/>
    <circle cx="156" cy="126" r="5" fill="#C4B5FD" stroke="none"/>
    <circle cx="170" cy="140" r="5" fill="#A5B4FC" stroke="none"/>
  </g>
</svg>
